<svg id="visual" viewBox="0 0 960 540" width="960" height="540" xmlns="http://www.w3.org/2000/svg" xmlns:xlink="http://www.w3.org/1999/xlink" version="1.1"><rect x="0" y="0" width="960" height="540" fill="#202124"></rect><defs><linearGradient id="grad1_0" x1="43.8%" y1="0%" x2="100%" y2="100%"><stop offset="14.444444444444446%" stop-color="#202124" stop-opacity="1"></stop><stop offset="85.55555555555554%" stop-color="#202124" stop-opacity="1"></stop></linearGradient></defs><defs><linearGradient id="grad2_0" x1="0%" y1="0%" x2="56.3%" y2="100%"><stop offset="14.444444444444446%" stop-color="#202124" stop-opacity="1"></stop><stop offset="85.55555555555554%" stop-color="#202124" stop-opacity="1"></stop></linearGradient></defs><g transform="translate(960, 0)"><path d="M0 513C-70.6 508.9 -141.1 504.8 -196.3 474C-251.5 443.1 -291.3 385.3 -335.9 335.9C-380.4 286.4 -429.8 245.2 -460.1 190.6C-490.4 136 -501.7 68 -513 0L0 0Z" fill="#f8577d"></path></g><g transform="translate(0, 540)"><path d="M0 -513C69.5 -508.1 139.1 -503.2 196.3 -474C253.6 -444.7 298.6 -391.3 340.8 -340.8C383.1 -290.4 422.6 -243 450.9 -186.7C479.1 -130.5 496 -65.2 513 0L0 0Z" fill="#f8577d"></path></g></svg>