<svg id="visual" viewBox="0 0 960 540" width="960" height="540" xmlns="http://www.w3.org/2000/svg" xmlns:xlink="http://www.w3.org/1999/xlink" version="1.1"><rect x="0" y="0" width="960" height="540" fill="#001220"></rect><path d="M0 40L26.7 40C53.3 40 106.7 40 160 40.7C213.3 41.3 266.7 42.7 320 38.2C373.3 33.7 426.7 23.3 480 19.7C533.3 16 586.7 19 640 21.2C693.3 23.3 746.7 24.7 800 30.2C853.3 35.7 906.7 45.3 933.3 50.2L960 55L960 541L933.3 541C906.7 541 853.3 541 800 541C746.7 541 693.3 541 640 541C586.7 541 533.3 541 480 541C426.7 541 373.3 541 320 541C266.7 541 213.3 541 160 541C106.7 541 53.3 541 26.7 541L0 541Z" fill="#fa7268"></path><path d="M0 73L26.7 76.5C53.3 80 106.7 87 160 91.3C213.3 95.7 266.7 97.3 320 100C373.3 102.7 426.7 106.3 480 101.2C533.3 96 586.7 82 640 73.8C693.3 65.7 746.7 63.3 800 62.3C853.3 61.3 906.7 61.7 933.3 61.8L960 62L960 541L933.3 541C906.7 541 853.3 541 800 541C746.7 541 693.3 541 640 541C586.7 541 533.3 541 480 541C426.7 541 373.3 541 320 541C266.7 541 213.3 541 160 541C106.7 541 53.3 541 26.7 541L0 541Z" fill="#f66b68"></path><path d="M0 142L26.7 142.2C53.3 142.3 106.7 142.7 160 138.5C213.3 134.3 266.7 125.7 320 119.3C373.3 113 426.7 109 480 106.2C533.3 103.3 586.7 101.7 640 101.5C693.3 101.3 746.7 102.7 800 105.7C853.3 108.7 906.7 113.3 933.3 115.7L960 118L960 541L933.3 541C906.7 541 853.3 541 800 541C746.7 541 693.3 541 640 541C586.7 541 533.3 541 480 541C426.7 541 373.3 541 320 541C266.7 541 213.3 541 160 541C106.7 541 53.3 541 26.7 541L0 541Z" fill="#f26467"></path><path d="M0 172L26.7 174.5C53.3 177 106.7 182 160 176.7C213.3 171.3 266.7 155.7 320 150.8C373.3 146 426.7 152 480 152.2C533.3 152.3 586.7 146.7 640 149.5C693.3 152.3 746.7 163.7 800 163.8C853.3 164 906.7 153 933.3 147.5L960 142L960 541L933.3 541C906.7 541 853.3 541 800 541C746.7 541 693.3 541 640 541C586.7 541 533.3 541 480 541C426.7 541 373.3 541 320 541C266.7 541 213.3 541 160 541C106.7 541 53.3 541 26.7 541L0 541Z" fill="#ee5d67"></path><path d="M0 191L26.7 194.3C53.3 197.7 106.7 204.3 160 204.3C213.3 204.3 266.7 197.7 320 199C373.3 200.3 426.7 209.7 480 215C533.3 220.3 586.7 221.7 640 223C693.3 224.3 746.7 225.7 800 219.3C853.3 213 906.7 199 933.3 192L960 185L960 541L933.3 541C906.7 541 853.3 541 800 541C746.7 541 693.3 541 640 541C586.7 541 533.3 541 480 541C426.7 541 373.3 541 320 541C266.7 541 213.3 541 160 541C106.7 541 53.3 541 26.7 541L0 541Z" fill="#ea5667"></path><path d="M0 219L26.7 228.5C53.3 238 106.7 257 160 264.3C213.3 271.7 266.7 267.3 320 266.8C373.3 266.3 426.7 269.7 480 269.3C533.3 269 586.7 265 640 262.5C693.3 260 746.7 259 800 254.3C853.3 249.7 906.7 241.3 933.3 237.2L960 233L960 541L933.3 541C906.7 541 853.3 541 800 541C746.7 541 693.3 541 640 541C586.7 541 533.3 541 480 541C426.7 541 373.3 541 320 541C266.7 541 213.3 541 160 541C106.7 541 53.3 541 26.7 541L0 541Z" fill="#e54f67"></path><path d="M0 277L26.7 274.5C53.3 272 106.7 267 160 274C213.3 281 266.7 300 320 303.7C373.3 307.3 426.7 295.7 480 293.7C533.3 291.7 586.7 299.3 640 302.2C693.3 305 746.7 303 800 297.2C853.3 291.3 906.7 281.7 933.3 276.8L960 272L960 541L933.3 541C906.7 541 853.3 541 800 541C746.7 541 693.3 541 640 541C586.7 541 533.3 541 480 541C426.7 541 373.3 541 320 541C266.7 541 213.3 541 160 541C106.7 541 53.3 541 26.7 541L0 541Z" fill="#e14867"></path><path d="M0 350L26.7 350C53.3 350 106.7 350 160 346.3C213.3 342.7 266.7 335.3 320 331.5C373.3 327.7 426.7 327.3 480 332.2C533.3 337 586.7 347 640 344.2C693.3 341.3 746.7 325.7 800 323.8C853.3 322 906.7 334 933.3 340L960 346L960 541L933.3 541C906.7 541 853.3 541 800 541C746.7 541 693.3 541 640 541C586.7 541 533.3 541 480 541C426.7 541 373.3 541 320 541C266.7 541 213.3 541 160 541C106.7 541 53.3 541 26.7 541L0 541Z" fill="#dc4167"></path><path d="M0 368L26.7 365.3C53.3 362.7 106.7 357.3 160 358.8C213.3 360.3 266.7 368.7 320 368.7C373.3 368.7 426.7 360.3 480 360C533.3 359.7 586.7 367.3 640 368C693.3 368.7 746.7 362.3 800 364.7C853.3 367 906.7 378 933.3 383.5L960 389L960 541L933.3 541C906.7 541 853.3 541 800 541C746.7 541 693.3 541 640 541C586.7 541 533.3 541 480 541C426.7 541 373.3 541 320 541C266.7 541 213.3 541 160 541C106.7 541 53.3 541 26.7 541L0 541Z" fill="#d73a67"></path><path d="M0 394L26.7 398.5C53.3 403 106.7 412 160 415C213.3 418 266.7 415 320 415C373.3 415 426.7 418 480 420.8C533.3 423.7 586.7 426.3 640 426.8C693.3 427.3 746.7 425.7 800 423C853.3 420.3 906.7 416.7 933.3 414.8L960 413L960 541L933.3 541C906.7 541 853.3 541 800 541C746.7 541 693.3 541 640 541C586.7 541 533.3 541 480 541C426.7 541 373.3 541 320 541C266.7 541 213.3 541 160 541C106.7 541 53.3 541 26.7 541L0 541Z" fill="#d13367"></path><path d="M0 434L26.7 433.3C53.3 432.7 106.7 431.3 160 431.8C213.3 432.3 266.7 434.7 320 441.5C373.3 448.3 426.7 459.7 480 459C533.3 458.3 586.7 445.7 640 440.5C693.3 435.3 746.7 437.7 800 442.2C853.3 446.7 906.7 453.3 933.3 456.7L960 460L960 541L933.3 541C906.7 541 853.3 541 800 541C746.7 541 693.3 541 640 541C586.7 541 533.3 541 480 541C426.7 541 373.3 541 320 541C266.7 541 213.3 541 160 541C106.7 541 53.3 541 26.7 541L0 541Z" fill="#cc2b68"></path><path d="M0 506L26.7 502.3C53.3 498.7 106.7 491.3 160 492.5C213.3 493.7 266.7 503.3 320 506.7C373.3 510 426.7 507 480 508.5C533.3 510 586.7 516 640 511.5C693.3 507 746.7 492 800 488.2C853.3 484.3 906.7 491.7 933.3 495.3L960 499L960 541L933.3 541C906.7 541 853.3 541 800 541C746.7 541 693.3 541 640 541C586.7 541 533.3 541 480 541C426.7 541 373.3 541 320 541C266.7 541 213.3 541 160 541C106.7 541 53.3 541 26.7 541L0 541Z" fill="#c62368"></path></svg>