<svg id="visual" viewBox="0 0 960 540" width="960" height="540" xmlns="http://www.w3.org/2000/svg" xmlns:xlink="http://www.w3.org/1999/xlink" version="1.1"><path d="M0 82L32 87.3C64 92.7 128 103.3 192 90.7C256 78 320 42 384 43C448 44 512 82 576 82C640 82 704 44 768 27.8C832 11.7 896 17.3 928 20.2L960 23L960 0L928 0C896 0 832 0 768 0C704 0 640 0 576 0C512 0 448 0 384 0C320 0 256 0 192 0C128 0 64 0 32 0L0 0Z" fill="#ff90a8"></path><path d="M0 125L32 137.7C64 150.3 128 175.7 192 206.3C256 237 320 273 384 279.3C448 285.7 512 262.3 576 225.3C640 188.3 704 137.7 768 103.3C832 69 896 51 928 42L960 33L960 21L928 18.2C896 15.3 832 9.7 768 25.8C704 42 640 80 576 80C512 80 448 42 384 41C320 40 256 76 192 88.7C128 101.3 64 90.7 32 85.3L0 80Z" fill="#fc7593"></path><path d="M0 228L32 232.5C64 237 128 246 192 271.2C256 296.3 320 337.7 384 346.7C448 355.7 512 332.3 576 294.5C640 256.7 704 204.3 768 174.7C832 145 896 138 928 134.5L960 131L960 31L928 40C896 49 832 67 768 101.3C704 135.7 640 186.3 576 223.3C512 260.3 448 283.7 384 277.3C320 271 256 235 192 204.3C128 173.7 64 148.3 32 135.7L0 123Z" fill="#f8577d"></path><path d="M0 503L32 486.8C64 470.7 128 438.3 192 424C256 409.7 320 413.3 384 420.5C448 427.7 512 438.3 576 441.8C640 445.3 704 441.7 768 430.8C832 420 896 402 928 393L960 384L960 129L928 132.5C896 136 832 143 768 172.7C704 202.3 640 254.7 576 292.5C512 330.3 448 353.7 384 344.7C320 335.7 256 294.3 192 269.2C128 244 64 235 32 230.5L0 226Z" fill="#da486a"></path><path d="M0 541L32 541C64 541 128 541 192 541C256 541 320 541 384 541C448 541 512 541 576 541C640 541 704 541 768 541C832 541 896 541 928 541L960 541L960 382L928 391C896 400 832 418 768 428.8C704 439.7 640 443.3 576 439.8C512 436.3 448 425.7 384 418.5C320 411.3 256 407.7 192 422C128 436.3 64 468.7 32 484.8L0 501Z" fill="#bd3a57"></path></svg>